<mxfile host="65bd71144e">
    <diagram id="kIvCFfXgeJorsxHAow_0" name="第 1 页">
        <mxGraphModel dx="990" dy="614" grid="1" gridSize="10" guides="1" tooltips="1" connect="1" arrows="1" fold="1" page="1" pageScale="1" pageWidth="2339" pageHeight="3300" math="0" shadow="0">
            <root>
                <mxCell id="0"/>
                <mxCell id="1" parent="0"/>
                <mxCell id="4" style="edgeStyle=none;html=1;exitX=0.5;exitY=1;exitDx=0;exitDy=0;fontSize=17;" edge="1" parent="1" source="2">
                    <mxGeometry relative="1" as="geometry">
                        <mxPoint x="400" y="350" as="targetPoint"/>
                    </mxGeometry>
                </mxCell>
                <mxCell id="2" value="&lt;font style=&quot;font-size: 17px&quot;&gt;（（n）-PCI&amp;nbsp; ）&lt;/font&gt;" style="rounded=0;whiteSpace=wrap;html=1;" vertex="1" parent="1">
                    <mxGeometry x="160" y="100" width="170" height="60" as="geometry"/>
                </mxCell>
                <mxCell id="5" style="edgeStyle=none;html=1;exitX=0.5;exitY=1;exitDx=0;exitDy=0;fontSize=17;" edge="1" parent="1" source="3">
                    <mxGeometry relative="1" as="geometry">
                        <mxPoint x="400" y="350" as="targetPoint"/>
                    </mxGeometry>
                </mxCell>
                <mxCell id="3" value="（ (n）-UDI ）" style="rounded=0;whiteSpace=wrap;html=1;fontSize=17;" vertex="1" parent="1">
                    <mxGeometry x="510" y="100" width="120" height="60" as="geometry"/>
                </mxCell>
                <mxCell id="8" style="edgeStyle=none;html=1;exitX=0.5;exitY=1;exitDx=0;exitDy=0;fontSize=17;" edge="1" parent="1" source="6">
                    <mxGeometry relative="1" as="geometry">
                        <mxPoint x="570" y="550" as="targetPoint"/>
                    </mxGeometry>
                </mxCell>
                <mxCell id="6" value="( (n)-PDU ）" style="rounded=0;whiteSpace=wrap;html=1;fontSize=17;" vertex="1" parent="1">
                    <mxGeometry x="320" y="350" width="170" height="60" as="geometry"/>
                </mxCell>
                <mxCell id="9" style="edgeStyle=none;html=1;exitX=0.5;exitY=1;exitDx=0;exitDy=0;fontSize=17;" edge="1" parent="1" source="7">
                    <mxGeometry relative="1" as="geometry">
                        <mxPoint x="580" y="550" as="targetPoint"/>
                    </mxGeometry>
                </mxCell>
                <mxCell id="7" value="( (n)-ICI )" style="rounded=0;whiteSpace=wrap;html=1;fontSize=17;" vertex="1" parent="1">
                    <mxGeometry x="720" y="350" width="120" height="60" as="geometry"/>
                </mxCell>
                <mxCell id="20" style="edgeStyle=none;html=1;exitX=0.5;exitY=1;exitDx=0;exitDy=0;fontSize=17;" edge="1" parent="1" source="10">
                    <mxGeometry relative="1" as="geometry">
                        <mxPoint x="560" y="730" as="targetPoint"/>
                    </mxGeometry>
                </mxCell>
                <mxCell id="28" style="edgeStyle=none;html=1;exitX=0.75;exitY=1;exitDx=0;exitDy=0;entryX=0.5;entryY=0;entryDx=0;entryDy=0;fontSize=17;" edge="1" parent="1" source="10" target="27">
                    <mxGeometry relative="1" as="geometry"/>
                </mxCell>
                <mxCell id="10" value="( (n)-SDU ) ==( (n-1)-IDU )" style="rounded=0;whiteSpace=wrap;html=1;fontSize=17;" vertex="1" parent="1">
                    <mxGeometry x="220" y="560" width="680" height="60" as="geometry"/>
                </mxCell>
                <mxCell id="14" value="" style="endArrow=none;html=1;fontSize=17;" edge="1" parent="1">
                    <mxGeometry width="50" height="50" relative="1" as="geometry">
                        <mxPoint x="10" y="597" as="sourcePoint"/>
                        <mxPoint x="210" y="597" as="targetPoint"/>
                    </mxGeometry>
                </mxCell>
                <mxCell id="17" value="n层" style="ellipse;whiteSpace=wrap;html=1;fontSize=17;strokeColor=none;" vertex="1" parent="1">
                    <mxGeometry x="40" y="530" width="120" height="60" as="geometry"/>
                </mxCell>
                <mxCell id="18" value="n-1层" style="ellipse;whiteSpace=wrap;html=1;fontSize=17;strokeColor=none;" vertex="1" parent="1">
                    <mxGeometry x="40" y="600" width="120" height="60" as="geometry"/>
                </mxCell>
                <mxCell id="19" value="" style="endArrow=none;html=1;fontSize=17;" edge="1" parent="1">
                    <mxGeometry width="50" height="50" relative="1" as="geometry">
                        <mxPoint x="910" y="600" as="sourcePoint"/>
                        <mxPoint x="1140" y="600" as="targetPoint"/>
                    </mxGeometry>
                </mxCell>
                <mxCell id="25" style="edgeStyle=none;html=1;exitX=0.5;exitY=1;exitDx=0;exitDy=0;fontSize=17;" edge="1" parent="1" source="21">
                    <mxGeometry relative="1" as="geometry">
                        <mxPoint x="410" y="890" as="targetPoint"/>
                    </mxGeometry>
                </mxCell>
                <mxCell id="21" value="( (n-1)-UDI )" style="whiteSpace=wrap;html=1;fontSize=17;" vertex="1" parent="1">
                    <mxGeometry x="500" y="730" width="120" height="60" as="geometry"/>
                </mxCell>
                <mxCell id="24" style="edgeStyle=none;html=1;exitX=0.5;exitY=1;exitDx=0;exitDy=0;fontSize=17;" edge="1" parent="1" source="23">
                    <mxGeometry relative="1" as="geometry">
                        <mxPoint x="380" y="890" as="targetPoint"/>
                    </mxGeometry>
                </mxCell>
                <mxCell id="23" value="&lt;font style=&quot;font-size: 17px&quot;&gt;((n-1)-PCI )&lt;/font&gt;" style="rounded=0;whiteSpace=wrap;html=1;" vertex="1" parent="1">
                    <mxGeometry x="220" y="730" width="140" height="60" as="geometry"/>
                </mxCell>
                <mxCell id="26" value="（ (n-1)-PDU）" style="whiteSpace=wrap;html=1;fontSize=17;" vertex="1" parent="1">
                    <mxGeometry x="330" y="890" width="120" height="60" as="geometry"/>
                </mxCell>
                <mxCell id="27" value="( (n)-ICI )" style="whiteSpace=wrap;html=1;fontSize=17;" vertex="1" parent="1">
                    <mxGeometry x="740" y="730" width="120" height="60" as="geometry"/>
                </mxCell>
            </root>
        </mxGraphModel>
    </diagram>
</mxfile>